<?xml version="1.0" encoding="UTF-8" standalone="no"?>
<!DOCTYPE svg PUBLIC "-//W3C//DTD SVG 1.1//EN"
 "http://www.w3.org/Graphics/SVG/1.1/DTD/svg11.dtd">
<!-- Generated by graphviz version 2.43.0 (0)
 -->
<!-- Title: %3 Pages: 1 -->
<svg width="1984pt" height="1052pt"
 viewBox="0.00 0.00 1984.00 1052.00" xmlns="http://www.w3.org/2000/svg" xmlns:xlink="http://www.w3.org/1999/xlink">
<g id="graph0" class="graph" transform="scale(1 1) rotate(0) translate(4 1048)">
<title>%3</title>
<polygon fill="white" stroke="transparent" points="-4,4 -4,-1048 1980,-1048 1980,4 -4,4"/>
<!-- jqt -->
<g id="node1" class="node">
<title>jqt</title>
<ellipse fill="none" stroke="black" cx="1078" cy="-738" rx="27" ry="18"/>
<text text-anchor="middle" x="1078" y="-734.3" font-family="Times,serif" font-size="14.00">jqt</text>
</g>
<!-- rhn -->
<g id="node2" class="node">
<title>rhn</title>
<ellipse fill="none" stroke="black" cx="931" cy="-234" rx="27" ry="18"/>
<text text-anchor="middle" x="931" y="-230.3" font-family="Times,serif" font-size="14.00">rhn</text>
</g>
<!-- jqt&#45;&#45;rhn -->
<g id="edge1" class="edge">
<title>jqt&#45;&#45;rhn</title>
<path fill="none" stroke="black" d="M1073.11,-720.3C1050.74,-643.91 958.32,-328.28 935.91,-251.77"/>
</g>
<!-- xhk -->
<g id="node3" class="node">
<title>xhk</title>
<ellipse fill="none" stroke="black" cx="1111" cy="-18" rx="27.1" ry="18"/>
<text text-anchor="middle" x="1111" y="-14.3" font-family="Times,serif" font-size="14.00">xhk</text>
</g>
<!-- jqt&#45;&#45;xhk -->
<g id="edge2" class="edge">
<title>jqt&#45;&#45;xhk</title>
<path fill="none" stroke="black" d="M1101.53,-728.79C1129.55,-718.85 1177.63,-701.29 1218,-684 1336.22,-633.36 1373.99,-626.68 1469,-540 1500.2,-511.54 1515.39,-507.24 1531,-468 1566.52,-378.7 1538.78,-348.08 1541,-252 1541.37,-236 1544.41,-231.63 1541,-216 1524.81,-141.8 1514.91,-109.73 1449,-72 1395.78,-41.53 1208.49,-25.73 1138.05,-20.76"/>
</g>
<!-- nvd -->
<g id="node4" class="node">
<title>nvd</title>
<ellipse fill="none" stroke="black" cx="1044" cy="-450" rx="27.9" ry="18"/>
<text text-anchor="middle" x="1044" y="-446.3" font-family="Times,serif" font-size="14.00">nvd</text>
</g>
<!-- jqt&#45;&#45;nvd -->
<g id="edge3" class="edge">
<title>jqt&#45;&#45;nvd</title>
<path fill="none" stroke="black" d="M1081.52,-719.96C1086.97,-689.91 1095.14,-625.97 1078,-576 1071.42,-556.83 1057.22,-558.94 1050,-540 1040.95,-516.27 1041.04,-486.42 1042.26,-468.03"/>
</g>
<!-- rsh -->
<g id="node5" class="node">
<title>rsh</title>
<ellipse fill="none" stroke="black" cx="1472" cy="-162" rx="27" ry="18"/>
<text text-anchor="middle" x="1472" y="-158.3" font-family="Times,serif" font-size="14.00">rsh</text>
</g>
<!-- jqt&#45;&#45;rsh -->
<g id="edge4" class="edge">
<title>jqt&#45;&#45;rsh</title>
<path fill="none" stroke="black" d="M1104.65,-734.07C1148.29,-728.56 1237.01,-714.38 1306,-684 1432.87,-628.14 1481.11,-597.33 1531,-468 1571.36,-363.39 1569.32,-316.2 1519,-216 1511.38,-200.83 1498.32,-186.62 1487.9,-176.73"/>
</g>
<!-- pzl -->
<g id="node6" class="node">
<title>pzl</title>
<ellipse fill="none" stroke="black" cx="1358" cy="-378" rx="27" ry="18"/>
<text text-anchor="middle" x="1358" y="-374.3" font-family="Times,serif" font-size="14.00">pzl</text>
</g>
<!-- jqt&#45;&#45;pzl -->
<g id="edge5" class="edge">
<title>jqt&#45;&#45;pzl</title>
<path fill="none" stroke="black" d="M1090.03,-721.62C1135.98,-662.86 1300.14,-452.98 1346.01,-394.33"/>
</g>
<!-- lsr -->
<g id="node7" class="node">
<title>lsr</title>
<ellipse fill="none" stroke="black" cx="1332" cy="-594" rx="27" ry="18"/>
<text text-anchor="middle" x="1332" y="-590.3" font-family="Times,serif" font-size="14.00">lsr</text>
</g>
<!-- jqt&#45;&#45;lsr -->
<g id="edge6" class="edge">
<title>jqt&#45;&#45;lsr</title>
<path fill="none" stroke="black" d="M1098.36,-725.62C1146.03,-698.97 1264.48,-632.75 1311.9,-606.24"/>
</g>
<!-- qnr -->
<g id="node8" class="node">
<title>qnr</title>
<ellipse fill="none" stroke="black" cx="608" cy="-306" rx="27" ry="18"/>
<text text-anchor="middle" x="608" y="-302.3" font-family="Times,serif" font-size="14.00">qnr</text>
</g>
<!-- jqt&#45;&#45;qnr -->
<g id="edge7" class="edge">
<title>jqt&#45;&#45;qnr</title>
<path fill="none" stroke="black" d="M1051.2,-735.59C984.19,-731.59 811.57,-718.13 767,-684 644.61,-590.29 615.47,-384.56 609.42,-324.06"/>
</g>
<!-- lhk -->
<g id="node9" class="node">
<title>lhk</title>
<ellipse fill="none" stroke="black" cx="803" cy="-666" rx="27" ry="18"/>
<text text-anchor="middle" x="803" y="-662.3" font-family="Times,serif" font-size="14.00">lhk</text>
</g>
<!-- jqt&#45;&#45;lhk -->
<g id="edge8" class="edge">
<title>jqt&#45;&#45;lhk</title>
<path fill="none" stroke="black" d="M1053.11,-730.66C1000.89,-717.37 880.38,-686.7 828.03,-673.37"/>
</g>
<!-- ntq -->
<g id="node10" class="node">
<title>ntq</title>
<ellipse fill="none" stroke="black" cx="781" cy="-522" rx="27" ry="18"/>
<text text-anchor="middle" x="781" y="-518.3" font-family="Times,serif" font-size="14.00">ntq</text>
</g>
<!-- jqt&#45;&#45;ntq -->
<g id="edge9" class="edge">
<title>jqt&#45;&#45;ntq</title>
<path fill="none" stroke="black" d="M1060.31,-724.25C1007.49,-686.19 851.3,-573.65 798.6,-535.68"/>
</g>
<!-- rzs -->
<g id="node11" class="node">
<title>rzs</title>
<ellipse fill="none" stroke="black" cx="640" cy="-90" rx="27" ry="18"/>
<text text-anchor="middle" x="640" y="-86.3" font-family="Times,serif" font-size="14.00">rzs</text>
</g>
<!-- jqt&#45;&#45;rzs -->
<g id="edge10" class="edge">
<title>jqt&#45;&#45;rzs</title>
<path fill="none" stroke="black" d="M1051.14,-735.09C979.29,-729.63 784.23,-712.52 727,-684 512.66,-577.17 342,-546.49 342,-307 342,-307 342,-307 342,-233 342,-192.03 336,-171.9 366,-144 401.74,-110.75 550.97,-97.01 612.89,-92.66"/>
</g>
<!-- rhn&#45;&#45;xhk -->
<g id="edge11" class="edge">
<title>rhn&#45;&#45;xhk</title>
<path fill="none" stroke="black" d="M943.66,-217.95C976.71,-178.66 1065.32,-73.31 1098.36,-34.03"/>
</g>
<!-- rhn&#45;&#45;rsh -->
<g id="edge12" class="edge">
<title>rhn&#45;&#45;rsh</title>
<path fill="none" stroke="black" d="M957.46,-229.58C1049.32,-217.69 1353.81,-178.29 1445.59,-166.42"/>
</g>
<!-- rhn&#45;&#45;rzs -->
<g id="edge13" class="edge">
<title>rhn&#45;&#45;rzs</title>
<path fill="none" stroke="black" d="M909.6,-222.56C855.79,-196.3 715.28,-127.73 661.43,-101.46"/>
</g>
<!-- nvd&#45;&#45;rhn -->
<g id="edge14" class="edge">
<title>nvd&#45;&#45;rhn</title>
<path fill="none" stroke="black" d="M1036.34,-432.27C1022.65,-402.72 992.75,-339.51 964,-288 956.92,-275.32 948.21,-261.39 941.52,-251"/>
</g>
<!-- nvd&#45;&#45;xhk -->
<g id="edge15" class="edge">
<title>nvd&#45;&#45;xhk</title>
<path fill="none" stroke="black" d="M1054.54,-432.99C1060.69,-422.83 1068.01,-409.15 1072,-396 1112.59,-262.2 1112.67,-90.76 1111.52,-36.37"/>
</g>
<!-- nvd&#45;&#45;rsh -->
<g id="edge16" class="edge">
<title>nvd&#45;&#45;rsh</title>
<path fill="none" stroke="black" d="M1062.67,-436.53C1133.14,-389.44 1382.6,-222.74 1453.24,-175.54"/>
</g>
<!-- nvd&#45;&#45;pzl -->
<g id="edge17" class="edge">
<title>nvd&#45;&#45;pzl</title>
<path fill="none" stroke="black" d="M1066.39,-439.01C1072.65,-436.48 1079.51,-433.92 1086,-432 1174.32,-405.79 1282.71,-389.13 1331.72,-382.41"/>
</g>
<!-- nvd&#45;&#45;qnr -->
<g id="edge18" class="edge">
<title>nvd&#45;&#45;qnr</title>
<path fill="none" stroke="black" d="M1019.82,-440.95C972.61,-425.24 864.84,-389.47 774,-360 723.5,-343.61 664.22,-324.79 631.94,-314.57"/>
</g>
<!-- nvd&#45;&#45;rzs -->
<g id="edge19" class="edge">
<title>nvd&#45;&#45;rzs</title>
<path fill="none" stroke="black" d="M1047.95,-432.06C1053.78,-405.55 1064,-352.56 1064,-307 1064,-307 1064,-307 1064,-233 1064,-148.77 759.35,-105.31 666.52,-94.02"/>
</g>
<!-- rsh&#45;&#45;xhk -->
<g id="edge20" class="edge">
<title>rsh&#45;&#45;xhk</title>
<path fill="none" stroke="black" d="M1467.05,-144.2C1460.08,-123.68 1445.3,-89.53 1420,-72 1374.37,-40.38 1205.24,-25.5 1138.42,-20.76"/>
</g>
<!-- rsh&#45;&#45;rzs -->
<g id="edge21" class="edge">
<title>rsh&#45;&#45;rzs</title>
<path fill="none" stroke="black" d="M1445.58,-157.04C1419.73,-153.28 1379.23,-147.66 1344,-144 1080.67,-116.62 760.52,-97.71 666.9,-92.47"/>
</g>
<!-- pzl&#45;&#45;rhn -->
<g id="edge34" class="edge">
<title>pzl&#45;&#45;rhn</title>
<path fill="none" stroke="black" d="M1335.17,-367.97C1292.48,-351.21 1197.49,-314.62 1116,-288 1059.15,-269.43 991.35,-250.92 955.71,-241.46"/>
</g>
<!-- pzl&#45;&#45;xhk -->
<g id="edge35" class="edge">
<title>pzl&#45;&#45;xhk</title>
<path fill="none" stroke="black" d="M1367.25,-360.98C1381.2,-335.29 1406,-282.88 1406,-235 1406,-235 1406,-235 1406,-161 1406,-42.77 1211.25,-22.92 1138.22,-19.64"/>
</g>
<!-- pzl&#45;&#45;rsh -->
<g id="edge36" class="edge">
<title>pzl&#45;&#45;rsh</title>
<path fill="none" stroke="black" d="M1377.01,-364.99C1390.74,-355.41 1408.77,-340.85 1420,-324 1450.95,-277.56 1464.6,-211.37 1469.59,-180.33"/>
</g>
<!-- pzl&#45;&#45;qnr -->
<g id="edge37" class="edge">
<title>pzl&#45;&#45;qnr</title>
<path fill="none" stroke="black" d="M1331.31,-374.51C1214.79,-363.63 751.42,-320.39 634.76,-309.5"/>
</g>
<!-- pzl&#45;&#45;rzs -->
<g id="edge38" class="edge">
<title>pzl&#45;&#45;rzs</title>
<path fill="none" stroke="black" d="M1350.49,-360.5C1341.51,-341.77 1325.25,-310.86 1306,-288 1242,-212 1226.39,-182.99 1135,-144 1049.44,-107.5 757.81,-94.91 667.13,-91.83"/>
</g>
<!-- lsr&#45;&#45;rhn -->
<g id="edge39" class="edge">
<title>lsr&#45;&#45;rhn</title>
<path fill="none" stroke="black" d="M1316.28,-578.97C1252.13,-521.7 1010.56,-306.03 946.61,-248.94"/>
</g>
<!-- lsr&#45;&#45;xhk -->
<g id="edge40" class="edge">
<title>lsr&#45;&#45;xhk</title>
<path fill="none" stroke="black" d="M1357.69,-588.25C1461.31,-567.47 1843,-474.66 1843,-235 1843,-235 1843,-235 1843,-161 1843,-112.79 1822.82,-95.98 1781,-72 1724.51,-39.61 1257.01,-23.4 1138.32,-19.79"/>
</g>
<!-- lsr&#45;&#45;nvd -->
<g id="edge41" class="edge">
<title>lsr&#45;&#45;nvd</title>
<path fill="none" stroke="black" d="M1308.6,-584.48C1282.28,-574.66 1238.43,-557.6 1202,-540 1150.69,-515.21 1092.95,-480.98 1063.53,-463.06"/>
</g>
<!-- lsr&#45;&#45;rsh -->
<g id="edge42" class="edge">
<title>lsr&#45;&#45;rsh</title>
<path fill="none" stroke="black" d="M1353.2,-582.41C1402.37,-557.16 1520,-492.41 1520,-451 1520,-451 1520,-451 1520,-305 1520,-257.12 1495.2,-204.71 1481.25,-179.02"/>
</g>
<!-- lsr&#45;&#45;pzl -->
<g id="edge43" class="edge">
<title>lsr&#45;&#45;pzl</title>
<path fill="none" stroke="black" d="M1349.72,-580.15C1361.33,-570.56 1375.51,-556.34 1382,-540 1401.82,-490.1 1379,-425.58 1365.92,-395.64"/>
</g>
<!-- lsr&#45;&#45;qnr -->
<g id="edge44" class="edge">
<title>lsr&#45;&#45;qnr</title>
<path fill="none" stroke="black" d="M1311.65,-581.84C1292.83,-571.4 1264.21,-555.17 1240,-540 1167.61,-494.65 1158.16,-468.66 1081,-432 980.03,-384.03 948.1,-388.46 840,-360 765.49,-340.38 676.41,-321.22 633.54,-312.26"/>
</g>
<!-- lsr&#45;&#45;ntq -->
<g id="edge45" class="edge">
<title>lsr&#45;&#45;ntq</title>
<path fill="none" stroke="black" d="M1305.42,-589.62C1212.13,-577.77 900.19,-538.14 807.31,-526.34"/>
</g>
<!-- lsr&#45;&#45;rzs -->
<g id="edge46" class="edge">
<title>lsr&#45;&#45;rzs</title>
<path fill="none" stroke="black" d="M1326.02,-576.02C1300,-505.11 1188.81,-232.31 990,-144 877.95,-94.23 727.98,-89.84 667.25,-90.33"/>
</g>
<!-- qnr&#45;&#45;rhn -->
<g id="edge71" class="edge">
<title>qnr&#45;&#45;rhn</title>
<path fill="none" stroke="black" d="M633.35,-299.51C693.73,-286.42 845.51,-253.53 905.77,-240.47"/>
</g>
<!-- qnr&#45;&#45;xhk -->
<g id="edge72" class="edge">
<title>qnr&#45;&#45;xhk</title>
<path fill="none" stroke="black" d="M601.1,-288.59C584.62,-246.51 548.35,-133.77 604,-72 636.36,-36.08 982.82,-22.87 1083.63,-19.77"/>
</g>
<!-- qnr&#45;&#45;rsh -->
<g id="edge73" class="edge">
<title>qnr&#45;&#45;rsh</title>
<path fill="none" stroke="black" d="M630.64,-296.19C678.58,-277.94 794.2,-236.03 895,-216 1103.93,-174.49 1362,-165.39 1444.97,-163.48"/>
</g>
<!-- qnr&#45;&#45;rzs -->
<g id="edge74" class="edge">
<title>qnr&#45;&#45;rzs</title>
<path fill="none" stroke="black" d="M610.56,-287.85C616.57,-247.68 631.49,-147.89 637.47,-107.94"/>
</g>
<!-- lhk&#45;&#45;rhn -->
<g id="edge75" class="edge">
<title>lhk&#45;&#45;rhn</title>
<path fill="none" stroke="black" d="M808.02,-648.14C828.49,-579.36 905.6,-320.31 926.02,-251.74"/>
</g>
<!-- lhk&#45;&#45;xhk -->
<g id="edge76" class="edge">
<title>lhk&#45;&#45;xhk</title>
<path fill="none" stroke="black" d="M778.05,-658.74C659.66,-627.61 163.91,-480.28 252,-216 278.34,-136.97 296.99,-108.25 372,-72 437.07,-40.55 957.48,-23.47 1083.56,-19.77"/>
</g>
<!-- lhk&#45;&#45;nvd -->
<g id="edge77" class="edge">
<title>lhk&#45;&#45;nvd</title>
<path fill="none" stroke="black" d="M825.47,-655.57C844.29,-646.69 870.77,-631.82 888,-612 922.47,-572.36 899.57,-541.84 936,-504 958.89,-480.23 994.66,-465.61 1018.7,-457.9"/>
</g>
<!-- lhk&#45;&#45;rsh -->
<g id="edge78" class="edge">
<title>lhk&#45;&#45;rsh</title>
<path fill="none" stroke="black" d="M828.04,-659.15C915.24,-637.73 1210.32,-556.29 1394,-396 1448.21,-348.69 1454.44,-322.67 1468,-252 1472.72,-227.39 1473.07,-198.29 1472.69,-180.23"/>
</g>
<!-- lhk&#45;&#45;pzl -->
<g id="edge79" class="edge">
<title>lhk&#45;&#45;pzl</title>
<path fill="none" stroke="black" d="M824.39,-654.82C846.44,-644.28 881.75,-627.25 912,-612 1077.37,-528.62 1274.71,-423.55 1337.66,-389.89"/>
</g>
<!-- lhk&#45;&#45;lsr -->
<g id="edge80" class="edge">
<title>lhk&#45;&#45;lsr</title>
<path fill="none" stroke="black" d="M829.23,-661.53C919.3,-649.61 1215.3,-610.44 1305.61,-598.49"/>
</g>
<!-- lhk&#45;&#45;qnr -->
<g id="edge81" class="edge">
<title>lhk&#45;&#45;qnr</title>
<path fill="none" stroke="black" d="M794.34,-648.87C773.98,-610.98 721.43,-513.32 677,-432 655.61,-392.84 630.19,-346.95 616.98,-323.16"/>
</g>
<!-- lhk&#45;&#45;ntq -->
<g id="edge82" class="edge">
<title>lhk&#45;&#45;ntq</title>
<path fill="none" stroke="black" d="M800.35,-647.87C796.12,-620.58 787.9,-567.52 783.66,-540.19"/>
</g>
<!-- lhk&#45;&#45;rzs -->
<g id="edge83" class="edge">
<title>lhk&#45;&#45;rzs</title>
<path fill="none" stroke="black" d="M788.55,-650.3C778.25,-639.74 764.14,-625.12 752,-612 649.51,-501.19 598.02,-472.68 572,-324 557.36,-240.36 607.9,-144.04 630.08,-106.81"/>
</g>
<!-- ntq&#45;&#45;rhn -->
<g id="edge98" class="edge">
<title>ntq&#45;&#45;rhn</title>
<path fill="none" stroke="black" d="M790.85,-504.96C797.13,-494.55 805.31,-480.62 812,-468 853.53,-389.67 855.39,-365.75 898,-288 904.98,-275.26 913.69,-261.34 920.42,-250.96"/>
</g>
<!-- ntq&#45;&#45;xhk -->
<g id="edge99" class="edge">
<title>ntq&#45;&#45;xhk</title>
<path fill="none" stroke="black" d="M756.58,-513.84C644.36,-479.74 189.36,-327.79 328,-144 421.26,-20.36 955.44,-17.5 1083.44,-18.62"/>
</g>
<!-- ntq&#45;&#45;nvd -->
<g id="edge100" class="edge">
<title>ntq&#45;&#45;nvd</title>
<path fill="none" stroke="black" d="M805.74,-514.41C855.74,-501.11 968.32,-471.14 1018.75,-457.72"/>
</g>
<!-- ntq&#45;&#45;rsh -->
<g id="edge101" class="edge">
<title>ntq&#45;&#45;rsh</title>
<path fill="none" stroke="black" d="M797.29,-507.57C820.05,-489.17 863.1,-455.7 903,-432 1105.69,-311.62 1370.88,-203.08 1449.26,-171.93"/>
</g>
<!-- ntq&#45;&#45;pzl -->
<g id="edge102" class="edge">
<title>ntq&#45;&#45;pzl</title>
<path fill="none" stroke="black" d="M802.27,-510.74C841.7,-492.16 929.22,-452.9 1007,-432 1125.44,-400.17 1271.84,-385.8 1331.16,-380.98"/>
</g>
<!-- ntq&#45;&#45;qnr -->
<g id="edge103" class="edge">
<title>ntq&#45;&#45;qnr</title>
<path fill="none" stroke="black" d="M780.9,-503.66C779.8,-471.41 772.97,-401.69 736,-360 708.23,-328.69 687.66,-340.01 649,-324 643.02,-321.52 636.55,-318.84 630.56,-316.36"/>
</g>
<!-- ntq&#45;&#45;rzs -->
<g id="edge104" class="edge">
<title>ntq&#45;&#45;rzs</title>
<path fill="none" stroke="black" d="M783.41,-503.83C785.52,-485.83 787.7,-456.77 784,-432 764.02,-298.21 679.53,-153.88 650.14,-106.81"/>
</g>
<!-- rzs&#45;&#45;xhk -->
<g id="edge105" class="edge">
<title>rzs&#45;&#45;xhk</title>
<path fill="none" stroke="black" d="M666.33,-85.09C748.86,-72.82 1001.89,-35.22 1084.56,-22.93"/>
</g>
<!-- frs -->
<g id="node12" class="node">
<title>frs</title>
<ellipse fill="none" stroke="black" cx="996" cy="-882" rx="27" ry="18"/>
<text text-anchor="middle" x="996" y="-878.3" font-family="Times,serif" font-size="14.00">frs</text>
</g>
<!-- frs&#45;&#45;jqt -->
<g id="edge22" class="edge">
<title>frs&#45;&#45;jqt</title>
<path fill="none" stroke="black" d="M1005.25,-864.99C1021,-837.71 1052.85,-782.55 1068.66,-755.17"/>
</g>
<!-- frs&#45;&#45;rhn -->
<g id="edge23" class="edge">
<title>frs&#45;&#45;rhn</title>
<path fill="none" stroke="black" d="M969.68,-877.63C933.55,-872.04 867.66,-858.31 820,-828 715.5,-761.55 679.31,-730.69 644,-612 592.87,-440.12 836.94,-287.59 910.53,-246.09"/>
</g>
<!-- frs&#45;&#45;xhk -->
<g id="edge24" class="edge">
<title>frs&#45;&#45;xhk</title>
<path fill="none" stroke="black" d="M1023.01,-881.42C1097.23,-881.87 1309.87,-878.31 1477,-828 1743.16,-747.88 1976,-728.96 1976,-451 1976,-451 1976,-451 1976,-161 1976,-99.48 1927.03,-95.05 1870,-72 1733.29,-16.75 1257.8,-17.56 1138.38,-18.67"/>
</g>
<!-- frs&#45;&#45;nvd -->
<g id="edge25" class="edge">
<title>frs&#45;&#45;nvd</title>
<path fill="none" stroke="black" d="M1014.63,-868.78C1042.75,-849.03 1094.79,-807.12 1114,-756 1127.03,-721.32 1124.94,-681.34 1097,-576 1086.24,-535.45 1064.82,-490.85 1052.77,-467.45"/>
</g>
<!-- frs&#45;&#45;rsh -->
<g id="edge26" class="edge">
<title>frs&#45;&#45;rsh</title>
<path fill="none" stroke="black" d="M1023.11,-881.7C1136.37,-882.92 1572.67,-870.35 1722,-612 1792,-490.9 2114.53,-825.07 1566,-216 1546.57,-194.42 1516.21,-179.54 1495.27,-171.16"/>
</g>
<!-- frs&#45;&#45;pzl -->
<g id="edge27" class="edge">
<title>frs&#45;&#45;pzl</title>
<path fill="none" stroke="black" d="M1023.32,-881.34C1079.4,-880.99 1210.37,-874.77 1307,-828 1350.06,-807.16 1359.58,-795.2 1387,-756 1452.09,-662.96 1443.66,-616.6 1429,-504 1424.74,-471.29 1427.25,-460.7 1411,-432 1402.02,-416.15 1387.01,-401.78 1375.26,-392.02"/>
</g>
<!-- frs&#45;&#45;lsr -->
<g id="edge28" class="edge">
<title>frs&#45;&#45;lsr</title>
<path fill="none" stroke="black" d="M1016.01,-869.55C1019.92,-867.55 1024.03,-865.6 1028,-864 1082.01,-842.22 1105.88,-860.81 1154,-828 1240.64,-768.93 1303.1,-654.05 1324.2,-611.43"/>
</g>
<!-- frs&#45;&#45;qnr -->
<g id="edge30" class="edge">
<title>frs&#45;&#45;qnr</title>
<path fill="none" stroke="black" d="M968.87,-880.23C911.74,-877.84 775.63,-868.03 670,-828 613.96,-806.76 603.31,-792.78 556,-756 519.27,-727.44 422.38,-654.74 404,-612 376.63,-548.36 543.02,-372.7 593.69,-321.3"/>
</g>
<!-- frs&#45;&#45;lhk -->
<g id="edge31" class="edge">
<title>frs&#45;&#45;lhk</title>
<path fill="none" stroke="black" d="M973.88,-871.32C936.78,-853.89 862.34,-813.63 824,-756 809.4,-734.06 804.91,-703.15 803.55,-684.13"/>
</g>
<!-- frs&#45;&#45;ntq -->
<g id="edge32" class="edge">
<title>frs&#45;&#45;ntq</title>
<path fill="none" stroke="black" d="M970.11,-876.69C939.21,-870.44 887.29,-856.39 852,-828 822.41,-804.2 825.28,-788.72 806,-756 787.52,-724.65 775.94,-719.28 767,-684 753.97,-632.6 767.81,-569.34 775.95,-539.75"/>
</g>
<!-- frs&#45;&#45;rzs -->
<g id="edge33" class="edge">
<title>frs&#45;&#45;rzs</title>
<path fill="none" stroke="black" d="M969.22,-879.28C891.37,-873.99 666.38,-856.57 599,-828 370.26,-731.01 266,-627.45 266,-379 266,-379 266,-379 266,-305 266,-226.25 277.66,-192.12 340,-144 382.7,-111.03 547.85,-96.95 613.18,-92.59"/>
</g>
<!-- hfx -->
<g id="node13" class="node">
<title>hfx</title>
<ellipse fill="none" stroke="black" cx="1271" cy="-810" rx="27" ry="18"/>
<text text-anchor="middle" x="1271" y="-806.3" font-family="Times,serif" font-size="14.00">hfx</text>
</g>
<!-- frs&#45;&#45;hfx -->
<g id="edge29" class="edge">
<title>frs&#45;&#45;hfx</title>
<path fill="none" stroke="black" d="M1020.89,-874.66C1073.11,-861.37 1193.62,-830.7 1245.97,-817.37"/>
</g>
<!-- hfx&#45;&#45;jqt -->
<g id="edge47" class="edge">
<title>hfx&#45;&#45;jqt</title>
<path fill="none" stroke="black" d="M1248.96,-799.59C1242.85,-797.05 1236.19,-794.36 1230,-792 1185.09,-774.87 1131.91,-756.84 1101.85,-746.84"/>
</g>
<!-- hfx&#45;&#45;rhn -->
<g id="edge48" class="edge">
<title>hfx&#45;&#45;rhn</title>
<path fill="none" stroke="black" d="M1291.18,-797.95C1295.08,-795.91 1299.14,-793.85 1303,-792 1339.63,-774.46 1358.6,-785.03 1387,-756 1404.38,-738.23 1459.14,-595.32 1469,-540 1484.2,-454.68 1459.86,-416.33 1394,-360 1261.45,-246.62 1035.77,-235.1 958.16,-234.65"/>
</g>
<!-- hfx&#45;&#45;xhk -->
<g id="edge49" class="edge">
<title>hfx&#45;&#45;xhk</title>
<path fill="none" stroke="black" d="M1290.98,-797.47C1294.89,-795.48 1299.01,-793.55 1303,-792 1362.48,-768.87 1386.13,-786.84 1442,-756 1569.45,-685.66 1919,-452.57 1919,-307 1919,-307 1919,-307 1919,-161 1919,-101.17 1873.14,-95.22 1818,-72 1692.08,-18.97 1252.88,-18.06 1138.44,-18.75"/>
</g>
<!-- hfx&#45;&#45;nvd -->
<g id="edge50" class="edge">
<title>hfx&#45;&#45;nvd</title>
<path fill="none" stroke="black" d="M1269.27,-791.83C1264.31,-750.38 1246.67,-643.3 1192,-576 1172.15,-551.57 1155.77,-559.42 1131,-540 1101.92,-517.2 1072.87,-485.15 1056.79,-466.38"/>
</g>
<!-- hfx&#45;&#45;rsh -->
<g id="edge51" class="edge">
<title>hfx&#45;&#45;rsh</title>
<path fill="none" stroke="black" d="M1291.07,-797.7C1294.97,-795.68 1299.07,-793.69 1303,-792 1349.09,-772.16 1372.28,-789.09 1410,-756 1517.14,-662.02 1501.24,-601.55 1551,-468 1590.13,-362.97 1607.14,-306.49 1541,-216 1527.99,-198.2 1507.37,-183.46 1492.06,-174.09"/>
</g>
<!-- hfx&#45;&#45;pzl -->
<g id="edge52" class="edge">
<title>hfx&#45;&#45;pzl</title>
<path fill="none" stroke="black" d="M1293.73,-799.96C1313.53,-791.16 1341.95,-776.17 1361,-756 1385.7,-729.84 1389.42,-718.94 1398,-684 1424.72,-575.2 1428.69,-537.85 1392,-432 1387.2,-418.16 1378.11,-404.29 1370.54,-394.21"/>
</g>
<!-- hfx&#45;&#45;lsr -->
<g id="edge53" class="edge">
<title>hfx&#45;&#45;lsr</title>
<path fill="none" stroke="black" d="M1288.76,-796.08C1315.05,-775.73 1363.24,-733.38 1382,-684 1387.68,-669.04 1387.91,-662.87 1382,-648 1375.51,-631.66 1361.33,-617.44 1349.72,-607.85"/>
</g>
<!-- hfx&#45;&#45;qnr -->
<g id="edge54" class="edge">
<title>hfx&#45;&#45;qnr</title>
<path fill="none" stroke="black" d="M1243.95,-807.62C1159.43,-803.02 901.34,-786.74 824,-756 774.11,-736.17 764.36,-722.56 727,-684 630.98,-584.9 625.62,-533.22 611,-396 608.35,-371.1 607.85,-342.07 607.84,-324.11"/>
</g>
<!-- hfx&#45;&#45;lhk -->
<g id="edge55" class="edge">
<title>hfx&#45;&#45;lhk</title>
<path fill="none" stroke="black" d="M1243.89,-808.44C1162.88,-806.33 924.27,-796.72 860,-756 833.19,-739.01 816.58,-704.34 808.63,-683.64"/>
</g>
<!-- hfx&#45;&#45;ntq -->
<g id="edge56" class="edge">
<title>hfx&#45;&#45;ntq</title>
<path fill="none" stroke="black" d="M1244.34,-806.66C1200.29,-801.97 1110.4,-788.91 1042,-756 927.87,-701.1 826.52,-581.07 792.84,-538.42"/>
</g>
<!-- hfx&#45;&#45;rzs -->
<g id="edge57" class="edge">
<title>hfx&#45;&#45;rzs</title>
<path fill="none" stroke="black" d="M1244.06,-807.92C1151.88,-803.95 849.81,-788.69 759,-756 513.3,-667.54 380,-568.14 380,-307 380,-307 380,-307 380,-233 380,-127.56 546.73,-99.93 613.15,-93.11"/>
</g>
<!-- cmg -->
<g id="node14" class="node">
<title>cmg</title>
<ellipse fill="none" stroke="black" cx="660" cy="-954" rx="30.59" ry="18"/>
<text text-anchor="middle" x="660" y="-950.3" font-family="Times,serif" font-size="14.00">cmg</text>
</g>
<!-- cmg&#45;&#45;jqt -->
<g id="edge58" class="edge">
<title>cmg&#45;&#45;jqt</title>
<path fill="none" stroke="black" d="M682.47,-941.49C755.56,-904.08 985.88,-786.16 1056.92,-749.79"/>
</g>
<!-- cmg&#45;&#45;rhn -->
<g id="edge59" class="edge">
<title>cmg&#45;&#45;rhn</title>
<path fill="none" stroke="black" d="M639.12,-940.8C564.31,-895.42 318.15,-731.08 397,-576 505.56,-362.49 815.79,-265.49 906.07,-241.26"/>
</g>
<!-- cmg&#45;&#45;xhk -->
<g id="edge60" class="edge">
<title>cmg&#45;&#45;xhk</title>
<path fill="none" stroke="black" d="M629.77,-951.34C547.78,-946.49 322.87,-930.67 256,-900 158.44,-855.25 76,-846.33 76,-739 76,-739 76,-739 76,-161 76,-49.73 201.29,-95.71 310,-72 462.5,-38.74 961.39,-23.11 1083.73,-19.72"/>
</g>
<!-- cmg&#45;&#45;nvd -->
<g id="edge61" class="edge">
<title>cmg&#45;&#45;nvd</title>
<path fill="none" stroke="black" d="M672.13,-937.15C729.75,-861.82 975.45,-540.61 1032.25,-466.36"/>
</g>
<!-- cmg&#45;&#45;rsh -->
<g id="edge62" class="edge">
<title>cmg&#45;&#45;rsh</title>
<path fill="none" stroke="black" d="M690.57,-952.99C788.53,-952.47 1103.13,-946.98 1358,-900 1605.13,-854.45 1900,-990.29 1900,-739 1900,-739 1900,-739 1900,-521 1900,-308.85 1586.78,-197.68 1496.24,-169.98"/>
</g>
<!-- cmg&#45;&#45;pzl -->
<g id="edge64" class="edge">
<title>cmg&#45;&#45;pzl</title>
<path fill="none" stroke="black" d="M690.69,-953.45C780.99,-954.12 1053.11,-951.39 1271,-900 1355.67,-880.03 1404.1,-899.94 1453,-828 1552.1,-682.22 1525.74,-580.65 1431,-432 1424.18,-421.3 1396.76,-402.92 1377.54,-390.86"/>
</g>
<!-- cmg&#45;&#45;lsr -->
<g id="edge65" class="edge">
<title>cmg&#45;&#45;lsr</title>
<path fill="none" stroke="black" d="M690.25,-950.79C834.33,-939.87 1444,-889.07 1444,-811 1444,-811 1444,-811 1444,-737 1444,-677.66 1382.95,-628.54 1351,-606.89"/>
</g>
<!-- cmg&#45;&#45;qnr -->
<g id="edge67" class="edge">
<title>cmg&#45;&#45;qnr</title>
<path fill="none" stroke="black" d="M629.39,-952.26C555.85,-949.84 372.04,-939.85 328,-900 255.73,-834.6 296.06,-781.29 290,-684 282.73,-567.24 277.22,-508.18 366,-432 403.12,-400.15 426.48,-418.32 470,-396 494.69,-383.34 497.81,-375.23 521,-360 543.77,-345.05 570.63,-328.91 588.42,-318.42"/>
</g>
<!-- cmg&#45;&#45;lhk -->
<g id="edge68" class="edge">
<title>cmg&#45;&#45;lhk</title>
<path fill="none" stroke="black" d="M648.98,-937.13C642.65,-927.01 635.31,-913.33 632,-900 620.45,-853.41 607.5,-833.28 632,-792 649.06,-763.27 670.45,-774.9 698,-756 732.29,-732.48 768.47,-699.82 788.14,-681.3"/>
</g>
<!-- cmg&#45;&#45;ntq -->
<g id="edge69" class="edge">
<title>cmg&#45;&#45;ntq</title>
<path fill="none" stroke="black" d="M644.65,-938.31C635.43,-928.44 624.45,-914.61 619,-900 602.22,-854.99 601.89,-838.21 615,-792 645.71,-683.77 733.68,-576.38 767.52,-537.89"/>
</g>
<!-- cmg&#45;&#45;rzs -->
<g id="edge70" class="edge">
<title>cmg&#45;&#45;rzs</title>
<path fill="none" stroke="black" d="M630.36,-949.64C545.55,-939.9 307.18,-911.61 295,-900 272.94,-878.97 275.09,-1120.26 222,-468 210,-320.58 180.54,-233.88 298,-144 347.45,-106.16 540.98,-94.85 612.9,-91.92"/>
</g>
<!-- cmg&#45;&#45;frs -->
<g id="edge63" class="edge">
<title>cmg&#45;&#45;frs</title>
<path fill="none" stroke="black" d="M689.05,-947.75C738.34,-938.72 841.45,-919.36 928,-900 942.37,-896.79 958.35,-892.81 971.2,-889.51"/>
</g>
<!-- cmg&#45;&#45;hfx -->
<g id="edge66" class="edge">
<title>cmg&#45;&#45;hfx</title>
<path fill="none" stroke="black" d="M690.32,-950.9C754.3,-945.98 907.45,-931.67 1032,-900 1114.6,-879 1208.12,-839.26 1249.43,-820.83"/>
</g>
<!-- bvb -->
<g id="node15" class="node">
<title>bvb</title>
<ellipse fill="none" stroke="black" cx="879" cy="-1026" rx="27.9" ry="18"/>
<text text-anchor="middle" x="879" y="-1022.3" font-family="Times,serif" font-size="14.00">bvb</text>
</g>
<!-- bvb&#45;&#45;jqt -->
<g id="edge84" class="edge">
<title>bvb&#45;&#45;jqt</title>
<path fill="none" stroke="black" d="M900.02,-1013.91C933.46,-995.14 998.39,-953.83 1032,-900 1061.25,-853.15 1072.42,-787.16 1076.24,-756.24"/>
</g>
<!-- bvb&#45;&#45;rhn -->
<g id="edge85" class="edge">
<title>bvb&#45;&#45;rhn</title>
<path fill="none" stroke="black" d="M851.39,-1022.56C795.74,-1017.16 666.52,-1002.23 562,-972 403.18,-926.06 312.11,-964.62 219,-828 137.89,-708.99 179.37,-643.79 214,-504 258.68,-323.62 393.65,-340.2 572,-288 692.63,-252.7 843.27,-240.23 903.89,-236.45"/>
</g>
<!-- bvb&#45;&#45;xhk -->
<g id="edge86" class="edge">
<title>bvb&#45;&#45;xhk</title>
<path fill="none" stroke="black" d="M850.9,-1024.75C714.05,-1023.33 121.25,-1014.74 52,-972 13.02,-947.94 0,-928.81 0,-883 0,-883 0,-883 0,-161 0,-105.06 37.89,-94.74 89,-72 182.19,-30.54 930.46,-20.82 1083.66,-19.25"/>
</g>
<!-- bvb&#45;&#45;nvd -->
<g id="edge87" class="edge">
<title>bvb&#45;&#45;nvd</title>
<path fill="none" stroke="black" d="M906.77,-1022.79C1042.98,-1011.56 1634,-958.52 1634,-883 1634,-883 1634,-883 1634,-809 1634,-651.84 1503.57,-655.5 1368,-576 1291.53,-531.16 1264.71,-535.89 1182,-504 1141.77,-488.49 1094.91,-470.51 1067.45,-459.98"/>
</g>
<!-- bvb&#45;&#45;rsh -->
<g id="edge88" class="edge">
<title>bvb&#45;&#45;rsh</title>
<path fill="none" stroke="black" d="M906.94,-1024.41C1077.96,-1020.42 1976,-994.2 1976,-883 1976,-883 1976,-883 1976,-665 1976,-477.57 1935.31,-402.61 1787,-288 1738.09,-250.2 1724.84,-240.31 1668,-216 1609.5,-190.98 1536.05,-174.9 1497.82,-167.58"/>
</g>
<!-- bvb&#45;&#45;pzl -->
<g id="edge90" class="edge">
<title>bvb&#45;&#45;pzl</title>
<path fill="none" stroke="black" d="M906.84,-1023.99C1066.81,-1017.84 1862,-982.26 1862,-883 1862,-883 1862,-883 1862,-737 1862,-499.81 1486.39,-405.34 1383.69,-383.94"/>
</g>
<!-- bvb&#45;&#45;lsr -->
<g id="edge91" class="edge">
<title>bvb&#45;&#45;lsr</title>
<path fill="none" stroke="black" d="M907.16,-1025.63C971.5,-1026.11 1133.2,-1021.82 1256,-972 1356.5,-931.23 1400.58,-922.94 1453,-828 1492.04,-757.29 1481.9,-708.16 1428,-648 1408.31,-626.02 1377.27,-611.23 1355.84,-602.98"/>
</g>
<!-- bvb&#45;&#45;qnr -->
<g id="edge94" class="edge">
<title>bvb&#45;&#45;qnr</title>
<path fill="none" stroke="black" d="M851.07,-1024.88C722.79,-1024.1 193.92,-1018.09 138,-972 106.39,-945.94 114,-923.97 114,-883 114,-883 114,-883 114,-665 114,-431.19 481.32,-334.41 582.48,-312.19"/>
</g>
<!-- bvb&#45;&#45;lhk -->
<g id="edge95" class="edge">
<title>bvb&#45;&#45;lhk</title>
<path fill="none" stroke="black" d="M851.04,-1023.5C790.34,-1019.62 649.56,-1006.96 620,-972 568.33,-910.88 581.77,-864.81 615,-792 646,-724.07 734.97,-688.02 778.46,-674.02"/>
</g>
<!-- bvb&#45;&#45;ntq -->
<g id="edge96" class="edge">
<title>bvb&#45;&#45;ntq</title>
<path fill="none" stroke="black" d="M850.93,-1023.81C786.04,-1020.45 628.49,-1008.63 593,-972 490.74,-866.46 587.19,-776.22 659,-648 677.55,-614.87 678.7,-603.39 705,-576 721.49,-558.83 744.32,-543.8 760.64,-534.17"/>
</g>
<!-- bvb&#45;&#45;rzs -->
<g id="edge97" class="edge">
<title>bvb&#45;&#45;rzs</title>
<path fill="none" stroke="black" d="M850.88,-1024.37C720.44,-1021.29 177.81,-1006.47 111,-972 65.54,-948.54 38,-934.16 38,-883 38,-883 38,-883 38,-521 38,-327.67 94.64,-251.99 255,-144 313.76,-104.43 535.19,-94.11 612.87,-91.69"/>
</g>
<!-- bvb&#45;&#45;frs -->
<g id="edge89" class="edge">
<title>bvb&#45;&#45;frs</title>
<path fill="none" stroke="black" d="M891.52,-1009.8C914.04,-982.47 961.12,-925.34 983.57,-898.09"/>
</g>
<!-- bvb&#45;&#45;hfx -->
<g id="edge92" class="edge">
<title>bvb&#45;&#45;hfx</title>
<path fill="none" stroke="black" d="M906.92,-1024.63C981.44,-1023.08 1182.6,-1014.91 1230,-972 1271.49,-934.45 1273.64,-861.35 1272.25,-828.15"/>
</g>
<!-- bvb&#45;&#45;cmg -->
<g id="edge93" class="edge">
<title>bvb&#45;&#45;cmg</title>
<path fill="none" stroke="black" d="M854.3,-1017.11C812.69,-1003.81 728.97,-977.05 686.3,-963.41"/>
</g>
</g>
</svg>
